<svg width="347" height="21" viewBox="0 0 347 21" fill="none" xmlns="http://www.w3.org/2000/svg">
<path d="M7.04004 7.31934H19.9199V0H26.96V20H19.9199V12.5195H7.04004V20H0V0H7.04004V7.31934Z" fill="#191919"/>
<path d="M44.8965 7.83984L51.9766 0H60.8164L48.377 12.2793V20H41.3369V12.2793L28.8965 0H37.7363L44.8965 7.83984Z" fill="#191919"/>
<path fill-rule="evenodd" clip-rule="evenodd" d="M79.2139 0C85.4536 8.58141e-05 89.0937 1.87964 89.0938 6.43945C89.0938 10.9994 85.4535 12.8798 79.0537 12.8799H69.8135V20H62.7734V0H79.2139ZM69.8135 7.95996H78.9336C80.9335 7.95994 82.0938 7.63942 82.0938 6.43945C82.0937 5.23958 80.9334 4.95998 78.9336 4.95996H69.8135V7.95996Z" fill="#191919"/>
<path d="M116.953 4.95996H98.9932V7.47949H116.233V12.4395H98.9932V15.04H116.953V20H91.9531V0H116.953V4.95996Z" fill="#191919"/>
<path fill-rule="evenodd" clip-rule="evenodd" d="M137.651 0C143.891 6.20791e-05 147.531 1.35987 147.531 5.75977C147.531 8.95963 144.971 10.2798 141.931 10.7998C144.811 11.0398 146.171 11.9595 146.691 14.5195L147.291 17.4795C147.531 18.6794 147.651 19.2397 148.011 19.6396V20H141.051C140.491 19.32 140.411 18.5196 140.171 17.5996L139.531 15.04C139.131 13.32 138.451 12.5996 135.931 12.5996H128.251V20H121.211V0H137.651ZM128.251 8.19922H137.131C139.371 8.19922 140.531 7.87957 140.531 6.55957C140.531 5.19957 139.371 4.95996 137.131 4.95996H128.251V8.19922Z" fill="#191919"/>
<path d="M174.521 5.19922H165.682V20H158.722V5.19922H149.882V0H174.521V5.19922Z" fill="#191919"/>
<path fill-rule="evenodd" clip-rule="evenodd" d="M306.618 0C312.418 2.13266e-05 316.298 1.27951 316.298 5.11914C316.298 7.31914 314.658 8.5191 312.018 9.0791C315.138 9.5991 317.138 10.92 317.138 14.04C317.137 18.3197 312.977 20 307.098 20H290.218V0H306.618ZM297.218 15.04H307.018C308.978 15.04 310.138 14.7996 310.138 13.5996C310.138 12.3596 308.978 12.1191 307.018 12.1191H297.218V15.04ZM297.218 7.67969H306.778C308.618 7.67967 309.818 7.47923 309.818 6.2793C309.818 5.1596 308.618 4.95998 306.778 4.95996H297.218V7.67969Z" fill="#191919"/>
<path d="M346.038 4.95996H328.078V7.47949H345.318V12.4395H328.078V15.04H346.038V20H321.038V0H346.038V4.95996Z" fill="#191919"/>
<path fill-rule="evenodd" clip-rule="evenodd" d="M190.862 15.04C185.982 15.04 184.422 13.0796 184.422 9.55957V0H177.422V9.55957C177.422 16.2796 180.942 20.1992 190.862 20.1992H272.643C282.522 20.1992 286.002 16.2795 286.002 9.55957V0H279.082V9.55957C279.082 13.0107 277.583 14.9611 272.925 15.0361L190.862 15.04Z" fill="#191919"/>
</svg>
