<svg width="21" height="23" viewBox="0 0 21 23" fill="none" xmlns="http://www.w3.org/2000/svg">
<path d="M16.731 18.0498H20.7808V18.9502H16.731V23H15.8306V18.9502H11.7808V18.0498H15.8306V14H16.731V18.0498ZM8.99951 11C10.3007 11.0001 11.5403 11.2906 12.6606 11.8076C12.2737 11.99 11.9026 12.2011 11.5503 12.4375C10.7471 12.1557 9.88893 12.0001 8.99951 12C4.49281 12 0.780709 15.9391 1.00928 20.5508L1.01025 20.5635C1.03042 20.5958 1.09754 20.6786 1.29443 20.8018C1.64264 21.0193 2.21053 21.2385 2.99072 21.4277C4.37577 21.7635 6.22142 21.9557 8.15283 21.9922C8.2584 22.3369 8.38701 22.6716 8.53369 22.9961C4.33845 22.9629 0.280074 22.2151 0.0239258 20.748L0.0112305 20.5996C-0.244646 15.4328 3.90558 11 8.99951 11ZM8.99951 0C11.7605 0.000527208 13.9995 2.2389 13.9995 5C13.9995 7.7611 11.7605 9.99947 8.99951 10C6.23809 10 3.99951 7.76142 3.99951 5C3.99951 2.23858 6.23809 4.81392e-07 8.99951 0ZM8.99951 1C6.79037 1 4.99951 2.79086 4.99951 5C4.99951 7.20914 6.79037 9 8.99951 9C11.2082 8.99947 12.9995 7.20881 12.9995 5C12.9995 2.79119 11.2082 1.00053 8.99951 1Z" fill="#191919"/>
</svg>
